<?xml version="1.0" encoding="utf-8"?>
<!-- Generator: Adobe Illustrator 24.1.3, SVG Export Plug-In . SVG Version: 6.00 Build 0)  -->
<svg version="1.1" id="Layer_1" xmlns="http://www.w3.org/2000/svg" xmlns:xlink="http://www.w3.org/1999/xlink" x="0px" y="0px"
	 viewBox="0 0 1366 768" style="enable-background:new 0 0 1366 768;" xml:space="preserve">
<style type="text/css">
	.st0{fill:#00B4FF;}
	.st1{fill:#646464;}
</style>
<g>
	<g>
	</g>
</g>
<g>
	<g>
		<g>
			<path d="M482.55,394.2c-0.86,3.68-4.74,18.28-6.18,22.53h-69.88v-3.97c13.37-0.99,14.38-2.27,14.38-13.89V342.9
				c0-12.61-1.58-13.32-12.37-14.31v-3.97h44c13.52,0,19.12-0.14,20.85-0.28c0.14,3.54,0.72,14.17,1.29,21.68l-4.31,0.71
				c-1.29-4.82-2.73-7.79-4.31-10.77c-2.3-4.68-5.61-5.67-14.23-5.67h-13.66c-4.46,0-4.75,0.42-4.75,4.53v31.32h15.96
				c10.78,0,11.5-2.13,13.23-11.76h4.46v29.19h-4.46c-1.87-10.2-3.02-11.62-13.37-11.62h-15.82v28.2c0,9.92,3.16,10.77,10.35,10.91
				h13.37c8.77,0,10.21-1.28,13.37-4.96c2.73-2.98,5.75-8.79,7.76-13.04L482.55,394.2z"/>
			<path d="M528.42,371.39c-2.59-8.22-6.33-13.89-15.1-13.89c-5.03,0-8.91,3.54-8.91,9.21c0,6.09,4.17,8.93,12.22,12.61
				c12.37,5.81,18.55,10.06,18.55,19.41c0,13.04-12.08,19.7-23.44,19.7c-7.48,0-14.09-2.27-17.11-3.97
				c-0.72-4.11-2.01-11.9-2.59-16.58l4.17-0.71c2.59,9.07,7.62,16.44,17.69,16.44c5.46,0,10.06-3.68,10.06-9.64
				c0-6.38-3.88-9.64-11.5-13.32c-10.06-4.82-18.26-9.35-18.26-19.56c0-10.34,8.91-18.28,22.43-18.28c6.04,0,10.93,1.42,13.8,1.84
				c0.43,3.4,1.44,12.33,2.16,15.73L528.42,371.39z"/>
			<path d="M572.71,416.59c-2.44,1.28-4.74,1.84-6.18,1.84c-9.2,0-14.09-5.53-14.09-16.86v-41.24h-9.92l-0.58-1.7l3.88-4.11h6.61
				v-11.9c2.73-2.83,6.9-6.52,9.63-9.35l2.16,0.28c-0.29,5.95-0.43,14.17-0.43,20.97h16.39c1.29,1.42,0.86,4.54-0.86,5.81h-15.53
				v36.28c0,11.48,4.6,13.6,8.34,13.6c3.45,0,6.76-1.28,8.77-2.27l1.29,3.68L572.71,416.59z"/>
			<path d="M657.83,413.47c-6.9,0.99-14.67,2.83-22,4.96c0-2.27,0-7.37,0-10.91c-7.76,6.38-14.09,10.91-22,10.91
				c-9.63,0-17.97-5.81-17.97-21.26v-27.49c0-7.65-1.15-8.5-4.74-9.21l-4.03-0.71v-3.68c6.18-0.28,15.67-1.7,20.56-2.55
				c-0.43,4.54-0.43,11.34-0.43,20.69v19.27c0,12.47,6.61,16.01,13.08,16.01c5.32,0,10.64-2.27,15.53-6.8v-33.02
				c0-7.65-1.73-8.64-6.61-9.35l-4.6-0.57v-3.68c9.2-0.42,19.27-1.98,22.57-2.55V401c0,7.08,1.15,8.08,6.61,8.36l4.03,0.14V413.47z"
				/>
			<path d="M735.04,413.19c-3.02,0.57-13.8,2.27-22.29,5.24c0-2.98,0-6.24,0-9.21c-2.59,1.56-6.33,3.54-8.92,5.1
				c-5.75,3.26-9.63,4.11-11.36,4.11c-11.5,0-26.74-11.34-26.74-31.18c0-19.7,17.54-34.43,37.24-34.43c2.01,0,6.76,0.28,9.78,1.56
				v-20.83c0-9.07-1.01-9.35-11.22-10.2v-3.68c7.19-0.99,17.25-2.98,22.57-4.82c0,5.24,0,11.48,0,17.29v68.16
				c0,7.37,1.01,8.36,6.33,8.64l4.6,0.28V413.19z M712.76,365.58c-3.31-4.96-9.49-7.23-15.1-7.23c-6.9,0-19.12,4.54-19.12,24.94
				c0,17.15,10.78,26.22,19.99,26.36c5.18,0,10.78-2.55,14.24-5.1V365.58z"/>
			<path d="M788.1,418.43c-2.16,0-5.32-1.13-6.76-2.69c-1.87-1.84-2.73-3.83-3.45-6.38c-5.75,3.83-12.8,9.07-17.25,9.07
				c-10.21,0-17.54-8.36-17.54-17.43c0-6.94,3.88-11.48,11.79-14.17c8.77-2.98,19.55-6.66,22.72-9.21v-2.83
				c0-10.06-5.18-15.87-12.65-15.87c-3.31,0-5.32,1.56-6.76,3.26c-1.58,1.98-2.59,5.1-3.88,9.21c-0.72,2.27-2.01,3.26-4.17,3.26
				c-2.73,0-6.33-2.83-6.33-6.24c0-1.98,1.87-3.68,4.75-5.67c4.17-2.98,12.51-8.22,20.7-9.92c4.31,0,8.77,1.28,12.08,3.83
				c5.03,4.25,7.33,9.07,7.33,16.44v27.35c0,6.52,2.44,8.5,5.03,8.5c1.73,0,3.59-0.71,5.18-1.56l1.44,3.97L788.1,418.43z
				 M777.6,382.58c-3.16,1.56-10.07,4.53-13.37,5.95c-5.46,2.41-8.77,5.1-8.77,10.34c0,7.51,5.75,10.91,10.35,10.91
				c3.74,0,8.91-2.27,11.79-5.1C777.6,398.03,777.6,389.24,777.6,382.58z"/>
			<path d="M806.22,416.73v-3.97c9.06-0.85,10.06-1.56,10.06-11.2v-29.19c0-8.79-0.43-9.35-9.06-10.77v-3.4
				c7.48-1.28,14.23-3.12,20.42-5.67c0,5.95,0,11.9,0,17.85v31.18c0,9.64,1.01,10.34,10.35,11.2v3.97H806.22z M821.17,338.65
				c-4.03,0-7.62-3.54-7.62-7.51c0-4.53,3.59-7.79,7.76-7.79c4.03,0,7.33,3.26,7.33,7.79C828.65,335.11,825.34,338.65,821.17,338.65
				z"/>
		</g>
	</g>
	<g>
		<g>
			<path class="st0" d="M857.36,335.69v38.54l7.83-8.91l7.14,8.91v-38.51c2.63,0.4,5.16,1.04,7.62,1.86v-2.41
				c-4.79-1.54-9.85-2.34-15.13-2.34c-5.3,0-9.99,0.77-13.69,1.67v2.41C852.96,336.45,855.05,336.01,857.36,335.69z"/>
		</g>
		<g>
			<path class="st1" d="M962.51,345.04v-7.48l-0.66-0.31c-0.38-0.18-9.52-4.41-21.92-4.41c-14.67,0-27.67,6.09-37.7,17.6
				c-10.04-11.51-23.04-17.6-37.7-17.6c-12.4,0-21.54,4.23-21.92,4.41l-0.66,0.31v7.48h-3.03v1.41v78v1.4
				c0,0,32.24-17.34,62.32,0.21c0,0,0.33,0.39,0.5,0.29c0.17,0.1,0.5-0.29,0.5-0.29c3.77-2.2,7.58-3.85,11.35-5.06
				c3.64,9.21,11.91,14.17,11.91,14.17h23.07c0,0,3.69-5.74,5.63-13.44c6.41,2.01,10.35,4.12,10.35,4.12v-1.4v-78v-1.41H962.51z
				 M903.39,352.6c9.79-11.6,22.08-17.48,36.54-17.48c10.01,0,17.97,2.96,20.25,3.9v72.76c-1.64-0.74-3.29-1.39-4.95-1.99
				c-0.7-9.65-4.64-10.45-6.11-10.4c-0.06,1.32-0.12,2.57-0.2,3.66c-0.09,1.38-0.23,2.53-0.3,3.34c-0.08,0.8-0.16,1.27-0.16,1.27
				s-0.07-0.46-0.16-1.27c-0.07-0.81-0.21-1.96-0.3-3.34c-0.19-2.58-0.31-5.96-0.33-9.4c-1.79-4.5-5.8-3.57-7.3-3.03
				c-0.03,4.12-0.15,8.15-0.33,11.25c-0.09,1.73-0.24,3.18-0.3,4.19c-0.01,0.12-0.02,0.22-0.03,0.32c-0.08-0.01-0.17-0.02-0.26-0.02
				c-0.01-0.1-0.02-0.19-0.02-0.3c-0.07-1.01-0.21-2.46-0.3-4.19c-0.2-3.47-0.33-8.09-0.34-12.71c0-1.16,0.01-2.32,0.03-3.46
				c-1.82-3.77-5.7-3.29-7.35-2.87c0.01,1.24,0.02,2.49,0.03,3.74c-0.02,2.63-0.03,5.27-0.09,7.74c-0.05,2.47-0.18,4.78-0.25,6.75
				c-0.07,1.98-0.23,3.62-0.3,4.78c-0.02,0.19-0.03,0.35-0.04,0.51c-0.07,0-0.15,0.01-0.22,0.02c-0.01-0.17-0.03-0.33-0.04-0.53
				c-0.07-1.15-0.22-2.8-0.29-4.78c-0.07-1.97-0.21-4.28-0.25-6.75c-0.07-2.47-0.08-5.1-0.1-7.74c0.02-2.63,0.03-5.27,0.1-7.74
				c0.05-2.47,0.18-4.77,0.25-6.75c0.02-0.7,0.06-1.34,0.1-1.96c-0.03-0.15-0.07-0.29-0.1-0.44c5.92-1.45,12.97-1.97,20.95-0.44
				l0.46-2.3c-8.43-1.62-15.88-1.04-22.13,0.51c-0.77-1.63-2.02-2.64-4.03-2.64c-1.92,0-3.13,2.19-3.88,5.31
				c-8.66,3.73-13.57,8.65-13.66,8.74l1.73,1.62c0.08-0.08,4.15-4.14,11.4-7.55c-0.96,6.57-0.6,15.19-0.48,18.12
				c0.17,4.16,0.26,13.81,0.29,16.88c-0.06,0.01-0.11,0.03-0.17,0.04l-2.62-13.6c-1.32-0.09-6.17,4.14-6.23,16.58
				c-3.84,1.64-6.75,3.35-8.49,4.49v-59.85v-2.56V352.6z M844.27,339.01c1.68-0.7,6.25-2.45,12.88-3.38
				c3.66-0.51,11.14-0.55,14.79,0.03c11.38,1.81,21.05,7.37,29.12,16.93v1.38v1.64v59.85c-4.37-2.86-15.91-9.28-31.69-9.28
				c-8.46,0-16.9,1.88-25.1,5.6V339.01z M902.22,422.42c0,0-20.91-17.81-59.12-4.1v-3.47l0.52-0.25c8.41-4.08,17.07-6.15,25.75-6.15
				c19.02,0,31.99,10.01,32.12,10.12l0.73,0.8l0.73-0.8c0.06-0.05,3.34-2.58,8.98-5.1c0.07,1.39,0.27,2.7,0.56,3.97
				C905.91,419.83,902.22,422.42,902.22,422.42z M955.15,416.33c0.12-1.12,0.2-2.26,0.2-3.41c0-0.23-0.01-0.44-0.02-0.66
				c1.84,0.69,3.67,1.46,5.49,2.35l0.52,0.25v3.47C959.24,417.56,957.17,416.9,955.15,416.33z"/>
			<path class="st1" d="M951.19,347.75l0.46-2.3c-26.69-5.14-43.54,11.75-43.71,11.92l1.73,1.62
				C909.84,358.82,925.82,342.86,951.19,347.75z"/>
			<path class="st1" d="M951.19,358.5l0.46-2.3c-26.69-5.14-43.54,11.75-43.71,11.92l1.73,1.62
				C909.84,369.58,925.82,353.62,951.19,358.5z"/>
		</g>
	</g>
</g>
</svg>
