<?xml version="1.0" encoding="utf-8"?>
<!-- Generator: Adobe Illustrator 24.1.3, SVG Export Plug-In . SVG Version: 6.00 Build 0)  -->
<svg version="1.1" id="Layer_1" xmlns="http://www.w3.org/2000/svg" xmlns:xlink="http://www.w3.org/1999/xlink" x="0px" y="0px"
	 viewBox="0 0 567.6 145.9" style="enable-background:new 0 0 567.6 145.9;" xml:space="preserve">
<style type="text/css">
	.st0{fill:#00B4FF;}
	.st1{fill:#646464;}
</style>
<g>
	<g>
		<path d="M80.6,89.9c-0.9,3.7-4.7,18.3-6.2,22.5H4.6v-4c13.4-1,14.4-2.3,14.4-13.9v-56C19,26,17.4,25.3,6.6,24.3v-4h44
			c13.5,0,19.1-0.1,20.9-0.3c0.1,3.5,0.7,14.2,1.3,21.7l-4.3,0.7c-1.3-4.8-2.7-7.8-4.3-10.8C61.8,27,58.5,26,49.9,26H36.2
			c-4.5,0-4.8,0.4-4.8,4.5v31.3h16c10.8,0,11.5-2.1,13.2-11.8h4.5v29.2h-4.5c-1.9-10.2-3-11.6-13.4-11.6H31.5v28.2
			c0,9.9,3.2,10.8,10.4,10.9h13.4c8.8,0,10.2-1.3,13.4-5c2.7-3,5.8-8.8,7.8-13L80.6,89.9z"/>
		<path d="M126.5,67.1c-2.6-8.2-6.3-13.9-15.1-13.9c-5,0-8.9,3.5-8.9,9.2c0,6.1,4.2,8.9,12.2,12.6c12.4,5.8,18.5,10.1,18.5,19.4
			c0,13-12.1,19.7-23.4,19.7c-7.5,0-14.1-2.3-17.1-4c-0.7-4.1-2-11.9-2.6-16.6l4.2-0.7c2.6,9.1,7.6,16.4,17.7,16.4
			c5.5,0,10.1-3.7,10.1-9.6c0-6.4-3.9-9.6-11.5-13.3c-10.1-4.8-18.3-9.4-18.3-19.6c0-10.3,8.9-18.3,22.4-18.3c6,0,10.9,1.4,13.8,1.8
			c0.4,3.4,1.4,12.3,2.2,15.7L126.5,67.1z"/>
		<path d="M170.8,112.3c-2.4,1.3-4.7,1.8-6.2,1.8c-9.2,0-14.1-5.5-14.1-16.9V56.1h-9.9l-0.6-1.7l3.9-4.1h6.6V38.3
			c2.7-2.8,6.9-6.5,9.6-9.4l2.2,0.3c-0.3,6-0.4,14.2-0.4,21h16.4c1.3,1.4,0.9,4.5-0.9,5.8h-15.5v36.3c0,11.5,4.6,13.6,8.3,13.6
			c3.5,0,6.8-1.3,8.8-2.3l1.3,3.7L170.8,112.3z"/>
		<path d="M255.9,109.2c-6.9,1-14.7,2.8-22,5c0-2.3,0-7.4,0-10.9c-7.8,6.4-14.1,10.9-22,10.9c-9.6,0-18-5.8-18-21.3V65.4
			c0-7.6-1.2-8.5-4.7-9.2l-4-0.7v-3.7c6.2-0.3,15.7-1.7,20.6-2.5c-0.4,4.5-0.4,11.3-0.4,20.7v19.3c0,12.5,6.6,16,13.1,16
			c5.3,0,10.6-2.3,15.5-6.8v-33c0-7.6-1.7-8.6-6.6-9.4l-4.6-0.6v-3.7c9.2-0.4,19.3-2,22.6-2.5v47.5c0,7.1,1.2,8.1,6.6,8.4l4,0.1
			L255.9,109.2L255.9,109.2z"/>
		<path d="M333.1,108.9c-3,0.6-13.8,2.3-22.3,5.2c0-3,0-6.2,0-9.2c-2.6,1.6-6.3,3.5-8.9,5.1c-5.8,3.3-9.6,4.1-11.4,4.1
			c-11.5,0-26.7-11.3-26.7-31.2c0-19.7,17.5-34.4,37.2-34.4c2,0,6.8,0.3,9.8,1.6V29.3c0-9.1-1-9.4-11.2-10.2v-3.7
			c7.2-1,17.3-3,22.6-4.8c0,5.2,0,11.5,0,17.3V96c0,7.4,1,8.4,6.3,8.6l4.6,0.3L333.1,108.9L333.1,108.9z M310.8,61.3
			c-3.3-5-9.5-7.2-15.1-7.2c-6.9,0-19.1,4.5-19.1,24.9c0,17.1,10.8,26.2,20,26.4c5.2,0,10.8-2.5,14.2-5.1L310.8,61.3L310.8,61.3z"/>
		<path d="M386.2,114.2c-2.2,0-5.3-1.1-6.8-2.7c-1.9-1.8-2.7-3.8-3.5-6.4c-5.8,3.8-12.8,9.1-17.3,9.1c-10.2,0-17.5-8.4-17.5-17.4
			c0-6.9,3.9-11.5,11.8-14.2c8.8-3,19.5-6.7,22.7-9.2v-2.8c0-10.1-5.2-15.9-12.7-15.9c-3.3,0-5.3,1.6-6.8,3.3
			c-1.6,2-2.6,5.1-3.9,9.2c-0.7,2.3-2,3.3-4.2,3.3c-2.7,0-6.3-2.8-6.3-6.2c0-2,1.9-3.7,4.8-5.7c4.2-3,12.5-8.2,20.7-9.9
			c4.3,0,8.8,1.3,12.1,3.8c5,4.3,7.3,9.1,7.3,16.4v27.4c0,6.5,2.4,8.5,5,8.5c1.7,0,3.6-0.7,5.2-1.6l1.4,4L386.2,114.2z M375.7,78.3
			c-3.2,1.6-10.1,4.5-13.4,6c-5.5,2.4-8.8,5.1-8.8,10.3c0,7.5,5.8,10.9,10.3,10.9c3.7,0,8.9-2.3,11.8-5.1
			C375.7,93.8,375.7,85,375.7,78.3z"/>
		<path d="M404.3,112.5v-4c9.1-0.9,10.1-1.6,10.1-11.2V68.1c0-8.8-0.4-9.4-9.1-10.8v-3.4c7.5-1.3,14.2-3.1,20.4-5.7
			c0,6,0,11.9,0,17.9v31.2c0,9.6,1,10.3,10.3,11.2v4H404.3z M419.3,34.4c-4,0-7.6-3.5-7.6-7.5c0-4.5,3.6-7.8,7.8-7.8
			c4,0,7.3,3.3,7.3,7.8C426.7,30.8,423.4,34.4,419.3,34.4z"/>
	</g>
	<g>
		<g>
			<path class="st0" d="M455.4,31.4V70l7.8-8.9l7.1,8.9V31.4c2.6,0.4,5.2,1,7.6,1.9v-2.4c-4.8-1.5-9.8-2.3-15.1-2.3
				c-5.3,0-10,0.8-13.7,1.7v2.4C451,32.2,453.1,31.7,455.4,31.4z"/>
		</g>
		<g>
			<path class="st1" d="M560.6,40.8v-7.5l-0.7-0.3c-0.4-0.2-9.5-4.4-21.9-4.4c-14.7,0-27.7,6.1-37.7,17.6
				c-10-11.5-23-17.6-37.7-17.6c-12.4,0-21.5,4.2-21.9,4.4l-0.7,0.3v7.5h-3v1.4v78v1.4c0,0,32.2-17.3,62.3,0.2c0,0,0.3,0.4,0.5,0.3
				c0.2,0.1,0.5-0.3,0.5-0.3c3.8-2.2,7.6-3.9,11.3-5.1c3.6,9.2,11.9,14.2,11.9,14.2h23.1c0,0,3.7-5.7,5.6-13.4
				c6.4,2,10.3,4.1,10.3,4.1v-1.4v-78v-1.4H560.6z M501.5,48.3c9.8-11.6,22.1-17.5,36.5-17.5c10,0,18,3,20.3,3.9v72.8
				c-1.6-0.7-3.3-1.4-5-2c-0.7-9.6-4.6-10.5-6.1-10.4c-0.1,1.3-0.1,2.6-0.2,3.7c-0.1,1.4-0.2,2.5-0.3,3.3c-0.1,0.8-0.2,1.3-0.2,1.3
				s-0.1-0.5-0.2-1.3c-0.1-0.8-0.2-2-0.3-3.3c-0.2-2.6-0.3-6-0.3-9.4c-1.8-4.5-5.8-3.6-7.3-3c0,4.1-0.2,8.1-0.3,11.3
				c-0.1,1.7-0.2,3.2-0.3,4.2c0,0.1,0,0.2,0,0.3c-0.1,0-0.2,0-0.3,0c0-0.1,0-0.2,0-0.3c-0.1-1-0.2-2.5-0.3-4.2
				c-0.2-3.5-0.3-8.1-0.3-12.7c0-1.2,0-2.3,0-3.5c-1.8-3.8-5.7-3.3-7.3-2.9c0,1.2,0,2.5,0,3.7c0,2.6,0,5.3-0.1,7.7
				c0,2.5-0.2,4.8-0.3,6.8c-0.1,2-0.2,3.6-0.3,4.8c0,0.2,0,0.4,0,0.5c-0.1,0-0.2,0-0.2,0c0-0.2,0-0.3,0-0.5
				c-0.1-1.1-0.2-2.8-0.3-4.8c-0.1-2-0.2-4.3-0.3-6.8c-0.1-2.5-0.1-5.1-0.1-7.7c0-2.6,0-5.3,0.1-7.7c0-2.5,0.2-4.8,0.3-6.8
				c0-0.7,0.1-1.3,0.1-2c0-0.1-0.1-0.3-0.1-0.4c5.9-1.5,13-2,21-0.4l0.5-2.3c-8.4-1.6-15.9-1-22.1,0.5c-0.8-1.6-2-2.6-4-2.6
				c-1.9,0-3.1,2.2-3.9,5.3c-8.7,3.7-13.6,8.6-13.7,8.7l1.7,1.6c0.1-0.1,4.2-4.1,11.4-7.5c-1,6.6-0.6,15.2-0.5,18.1
				c0.2,4.2,0.3,13.8,0.3,16.9c-0.1,0-0.1,0-0.2,0l-2.6-13.6c-1.3-0.1-6.2,4.1-6.2,16.6c-3.8,1.6-6.8,3.4-8.5,4.5V51.3v-2.6
				L501.5,48.3L501.5,48.3z M442.4,34.7c1.7-0.7,6.3-2.5,12.9-3.4c3.7-0.5,11.1-0.5,14.8,0c11.4,1.8,21,7.4,29.1,16.9v1.4v1.6v59.9
				c-4.4-2.9-15.9-9.3-31.7-9.3c-8.5,0-16.9,1.9-25.1,5.6V34.7z M500.3,118.1c0,0-20.9-17.8-59.1-4.1v-3.5l0.5-0.3
				c8.4-4.1,17.1-6.1,25.8-6.1c19,0,32,10,32.1,10.1l0.7,0.8l0.7-0.8c0.1,0,3.3-2.6,9-5.1c0.1,1.4,0.3,2.7,0.6,4
				C504,115.6,500.3,118.1,500.3,118.1z M553.2,112.1c0.1-1.1,0.2-2.3,0.2-3.4c0-0.2,0-0.4,0-0.7c1.8,0.7,3.7,1.5,5.5,2.4l0.5,0.3
				v3.5C557.3,113.3,555.3,112.6,553.2,112.1z"/>
			<path class="st1" d="M549.3,43.5l0.5-2.3C523,36,506.2,52.9,506,53.1l1.7,1.6C507.9,54.5,523.9,38.6,549.3,43.5z"/>
			<path class="st1" d="M549.3,54.2l0.5-2.3C523,46.8,506.2,63.7,506,63.8l1.7,1.6C507.9,65.3,523.9,49.3,549.3,54.2z"/>
		</g>
	</g>
</g>
</svg>
