<svg version="1.1" id="Camada_1" xmlns="http://www.w3.org/2000/svg" x="0" y="0" viewBox="0 0 350 310" xml:space="preserve"><style>.st2{fill:none;stroke:#548e54;stroke-width:3;stroke-linecap:round;stroke-linejoin:round}.st3{fill:#548e54}</style><g id="Group_194" transform="translate(-584 -2234)"><path id="Rectangle_42" d="M584 2234h350v310H584v-310z" fill="#cc4c4c" fill-opacity="0"/><g id="Group_137" transform="translate(0 79)"><path id="Path_59" d="M630.5 2331.6c18.5-26 54.9-38.4 100.6-51.5 45.7-13 82.1-106.2 134.7-68.4 52.6 37.8 30.2 204.4-106.9 203s-147-57.1-128.4-83.1z" opacity=".5" fill="#d0eaa7"/><g id="Group_97" transform="translate(694.031 2230.222)"><path id="Path_106" class="st2" d="M100.4 0H4.8C2.2 0 0 2.2 0 6.3v174.9c0 1.1 2.2 3.3 4.8 3.3h132c2.7 0 4.8-2.2 4.8-3.3V42.8c0-2.3-.3-3-.8-3.6L102.5.8c-.5-.5-1.3-.8-2.1-.8z"/><path id="Path_107" class="st2" d="M102.1.5v39h39l-39-39z"/><path id="Path_108" class="st3" d="M42.9 109.8c-1.2 0-2.3-.4-3.2-1.1-3.4-2.6-3.9-5.4-3.7-7.4.6-5.4 7.2-11 19.7-16.7 5.2-11.4 9.3-23.3 12.5-35.4-3.3-7.2-6.5-16.4-4.2-21.9.8-1.9 1.8-3.4 3.7-4 1.1-.3 2.2-.5 3.4-.6 1.7 0 2.8.7 4.2 3.5.9 2.1 3.2 3.9-1.2 22.4 4.4 9.1 10 17.5 16.8 24.9 3.6-.7 7.3-1.1 11.1-1.2 5.2 0 8.3 1.2 9.6 3.7 1.1 2 .6 4.4-1.3 7.1-1.6 2.5-4.4 3.9-7.3 3.9-4 0-8.7-2.5-13.9-7.5-10 2.2-19.7 5.3-29.1 9.3-2.2 4.9-4.8 9.6-7.8 14-3.5 4.8-6.4 7-9.3 7zm8.8-16.9c-7 4-9.9 7.2-10.1 9 0 .3-.1 1.1 1.4 2.3.4-.1 3.3-1.4 8.7-11.3zm44.9-14.6c2.7 2.1 3.3 3.1 5.1 3.1.8 0 3 0 4-1.5.3-.4.6-.9.8-1.4-.4-.2-.9-.6-3.9-.6-2 0-4 .1-6 .4zM72 56.6c-2.5 8.5-5.4 16.8-8.8 24.9 7-2.7 14.1-4.9 21.4-6.7-4.8-5.6-9-11.7-12.6-18.2zm-2-27.9c-.3.1-4.4 5.8.3 10.6 3.1-7-.2-10.6-.3-10.6z"/><path id="Path_109" class="st2" d="M136.9 184.5H4.8c-2.7 0-4.8-2.2-4.8-4.8v-51.2h141.7v51.2c0 2.7-2.2 4.8-4.8 4.8z"/><g id="Group_89" transform="translate(41.662 144.175)"><path id="Path_110" class="st3" d="M3.9 24.2H0V0h7c1 0 2 .2 3 .5s1.9.8 2.7 1.5c.8.7 1.5 1.5 1.9 2.4.5 1 .8 2 .7 3.1 0 1.1-.2 2.3-.6 3.3-.4 1-1 1.8-1.7 2.5-.8.7-1.7 1.2-2.7 1.6-1.1.4-2.3.6-3.5.6H3.9v8.7zM3.9 3v9.6h3.6c.5 0 1-.1 1.4-.2.5-.2.9-.4 1.3-.8s.8-1 1-1.6c.3-.8.4-1.6.4-2.5 0-.5-.1-.9-.2-1.4-.1-.5-.3-1-.7-1.5-.4-.5-.9-.9-1.4-1.2-.7-.3-1.6-.4-2.4-.4h-3z"/><path id="Path_111" class="st3" d="M39.6 11.4c0 1.7-.2 3.4-.6 5.1-.4 1.3-.9 2.5-1.6 3.6-.6.9-1.3 1.6-2.2 2.3-.7.5-1.5.9-2.4 1.2-.7.3-1.4.4-2.1.5-.5.1-.9.1-1.4.1h-9.2V0h7.3c1.8 0 3.7.3 5.4 1 1.4.6 2.8 1.5 3.8 2.6s1.8 2.3 2.3 3.7c.5 1.3.7 2.7.7 4.1zm-11.7 9.9c2.7 0 4.6-.9 5.8-2.6 1.2-1.7 1.8-4.2 1.8-7.4 0-1-.1-2-.4-3-.2-1-.7-1.9-1.4-2.7-.8-.9-1.7-1.5-2.8-1.9-1.5-.5-3-.8-4.6-.7H24v18.3h3.9z"/><path id="Path_112" class="st3" d="M49.3 3v7.6h10.1v2.7H49.3v10.9h-4V0h15.2v3H49.3z"/></g><g id="Ellipse_12" transform="translate(119.969 68.778)"><ellipse cx="35" cy="35.5" rx="35" ry="35.5" fill="#8cd18c"/><ellipse cx="35" cy="35.5" rx="33" ry="33.5" fill="none" stroke="#548e54" stroke-width="4"/></g><g id="Group_90" transform="translate(148.528 89.38)"><path id="Path_114" class="st3" d="M6.6 29.2L0 18.7h13.1L6.6 29.2z"/><path id="Path_113" d="M6.6 0v22" fill="none" stroke="#548e54" stroke-width="6"/></g></g></g></g></svg>