<svg version="1.1" id="Camada_1" xmlns="http://www.w3.org/2000/svg" x="0" y="0" viewBox="0 0 350 310" xml:space="preserve"><style>.st2{fill:none;stroke:#548e54;stroke-width:3;stroke-linecap:round;stroke-linejoin:round}.st3{fill:#548e54}.st4{fill:#8cd18c;stroke:#548e54;stroke-width:3.6}</style><g id="Group_195" transform="translate(-183 -2236)"><path id="Rectangle_41" d="M183 2236h350v310H183v-310z" fill="#cc4c4c" fill-opacity="0"/><g id="Group_191" transform="translate(3.489)"><g id="Group_138" transform="translate(0 83)"><path id="Path_59" d="M489.9 2323.2c-21.7 24.6-60.3 33.4-108.5 41.8s-95.4 100-145.3 55.4-9.3-212.9 131-196.6 144.5 74.8 122.8 99.4z" opacity=".5" fill="#d0eaa7"/><g id="Group_88" transform="translate(245.183 2192.662)"><g id="money" transform="translate(31.204 12.362)"><path id="Path_96" class="st2" d="M49.7 167.4v-12.7c-.3-.3-.6-.5-.9-.8l-45.4-46c-2.4-2 3.8 2 6 .9l17.7 4.1 54.6 54.6h-32zm35.5 0h42.6v-17.6c10.7-8 14.6-22.2 9.5-34.5l-52.1 52.1z"/><path id="Rectangle_21" class="st2" d="M41.9 167.9h93.6v42.9H41.9v-42.9z"/><path id="Path_98" class="st2" d="M104.9 210.8H42.4v-42.9h36.8c14.2 0 25.6 11.5 25.6 25.6v17.3z"/><circle id="Ellipse_10" class="st3" cx="79.5" cy="189.3" r="9.8"/><path id="Path_99" class="st2" d="M73.4 26.1c6.9-3 10.1-11.1 7-18-3-6.9-11.1-10.1-18-7-3.1 1.4-5.7 3.9-7 7l18 18z"/><path id="Path_100" class="st2" d="M92.7 45.7c6.9-3 10.1-11.1 7-18-3-6.9-11.1-10.1-18-7-3.1 1.4-5.7 3.9-7 7l18 18z"/><path id="Path_101" class="st2" d="M112 64.7c6.9-3 10.1-11.1 7-18-3-6.9-11.1-10.1-18-7-3.1 1.4-5.7 3.9-7 7l18 18z"/><g id="Group_87" transform="rotate(45 -13.07 92.702)"><g id="Ellipse_11"><circle class="st4" cx="31.5" cy="31.5" r="31.5"/><circle cx="31.5" cy="31.5" r="29.7" fill="none" stroke="#548e54" stroke-width="3.6"/></g><path id="like" class="st3" d="M31.8 23.9c1-2.5 3.4-4.1 6-4.1 3.6 0 6.3 3.1 6.6 6.8.1.9 0 1.7-.2 2.6-.5 2.2-1.8 4.3-3.5 5.8l-8.9 8-8.8-8c-1.7-1.5-2.9-3.6-3.5-5.8-.2-.8-.3-1.7-.2-2.6.3-3.7 2.9-6.8 6.6-6.8 2.6 0 4.9 1.7 5.9 4.1z"/></g><path id="Path_102" class="st2" d="M131.3 84.1c6.9-3 10.1-11.1 7-18-3-6.9-11.1-10.1-18-7-3.1 1.4-5.7 3.9-7 7l18 18z"/><path id="Path_103" class="st4" d="M52.7 114.1h-39C6.1 114 0 107.9 0 100.4c0-7.5 6.1-13.6 13.7-13.7h39c7.5 0 13.6 6.1 13.7 13.7-.1 7.5-6.2 13.6-13.7 13.7z"/></g><path id="Path_105" class="st2" d="M35.6 101.3L0 65.3 65.9 0l114.5 115.3-62.9 64.7h-5l-52.7-53"/></g></g></g></g></svg>